<svg width="25" height="24" viewBox="0 0 25 24" fill="none" xmlns="http://www.w3.org/2000/svg">
<path d="M4.6875 23.4375V21.0938H15.9766C17.7995 21.0938 19.3685 20.4883 20.6836 19.2773C21.9987 18.0664 22.6562 16.5625 22.6562 14.7656C22.6562 12.9688 21.9987 11.4648 20.6836 10.2539C19.3685 9.04297 17.7995 8.4375 15.9766 8.4375H4.45312L8.90625 12.8906L7.26562 14.5312L0 7.26562L7.26562 0L8.90625 1.64063L4.45312 6.09375H15.9375C18.4115 6.09375 20.5404 6.92708 22.3242 8.59375C24.1081 10.2604 25 12.3177 25 14.7656C25 17.2135 24.1081 19.2708 22.3242 20.9375C20.5404 22.6042 18.4115 23.4375 15.9375 23.4375H4.6875Z" fill="white"/>
</svg>
